<svg xmlns="http://www.w3.org/2000/svg" xmlns:xlink="http://www.w3.org/1999/xlink" width="500" zoomAndPan="magnify" viewBox="0 0 375 374.999991" height="500" preserveAspectRatio="xMidYMid meet" version="1.0"><defs><g/><clipPath id="d68483f747"><path d="M 15 9.496094 L 371.722656 9.496094 L 371.722656 365.746094 L 15 365.746094 Z M 15 9.496094 " clip-rule="nonzero"/></clipPath><clipPath id="e45e6490a6"><path d="M 3.472656 84.496094 L 3.472656 290.503906 C 3.472656 331.925781 37.050781 365.503906 78.472656 365.503906 L 296.527344 365.503906 C 337.949219 365.503906 371.527344 331.925781 371.527344 290.503906 L 371.527344 84.496094 C 371.527344 43.074219 337.949219 9.496094 296.527344 9.496094 L 78.472656 9.496094 C 37.050781 9.496094 3.472656 43.074219 3.472656 84.496094 Z M 3.472656 84.496094 " clip-rule="nonzero"/></clipPath><clipPath id="decdf9877f"><path d="M 3.472656 176 L 9 176 L 9 223 L 3.472656 223 Z M 3.472656 176 " clip-rule="nonzero"/></clipPath><clipPath id="8c4eb06096"><path d="M 3.472656 84.496094 L 3.472656 290.503906 C 3.472656 331.925781 37.050781 365.503906 78.472656 365.503906 L 296.527344 365.503906 C 337.949219 365.503906 371.527344 331.925781 371.527344 290.503906 L 371.527344 84.496094 C 371.527344 43.074219 337.949219 9.496094 296.527344 9.496094 L 78.472656 9.496094 C 37.050781 9.496094 3.472656 43.074219 3.472656 84.496094 Z M 3.472656 84.496094 " clip-rule="nonzero"/></clipPath><clipPath id="0805b92d4f"><path d="M 66 316 L 104 316 L 104 345 L 66 345 Z M 66 316 " clip-rule="nonzero"/></clipPath><clipPath id="1993972986"><path d="M 3.472656 84.496094 L 3.472656 290.503906 C 3.472656 331.925781 37.050781 365.503906 78.472656 365.503906 L 296.527344 365.503906 C 337.949219 365.503906 371.527344 331.925781 371.527344 290.503906 L 371.527344 84.496094 C 371.527344 43.074219 337.949219 9.496094 296.527344 9.496094 L 78.472656 9.496094 C 37.050781 9.496094 3.472656 43.074219 3.472656 84.496094 Z M 3.472656 84.496094 " clip-rule="nonzero"/></clipPath></defs><g clip-path="url(#d68483f747)"><g clip-path="url(#e45e6490a6)"><path fill="#303030" d="M 370.382812 175.066406 C 369.183594 165.34375 367.003906 156.816406 364.199219 148.441406 C 363.617188 146.867188 363.042969 145.289062 362.460938 143.707031 C 362.171875 142.917969 361.871094 142.121094 361.578125 141.320312 C 361.253906 140.523438 360.921875 139.722656 360.574219 138.90625 C 360.15625 137.820312 359.707031 136.746094 359.273438 135.664062 L 358.625 134.042969 C 358.402344 133.5 358.144531 132.984375 357.902344 132.453125 C 356.914062 130.332031 355.972656 128.195312 354.964844 126.089844 C 353.890625 124.011719 352.8125 121.9375 351.738281 119.851562 C 351.480469 119.328125 351.195312 118.8125 350.898438 118.320312 L 350.015625 116.796875 L 348.25 113.753906 C 347.984375 113.277344 347.710938 112.804688 347.429688 112.332031 C 347.425781 112.316406 347.417969 112.296875 347.402344 112.28125 C 347.371094 112.222656 347.351562 112.179688 347.320312 112.125 C 346.3125 109.976562 345.324219 107.8125 344.292969 105.667969 C 343.191406 103.5625 342.078125 101.449219 340.980469 99.339844 C 340.722656 98.804688 340.429688 98.289062 340.121094 97.773438 L 339.222656 96.234375 L 337.433594 93.148438 C 337.152344 92.660156 336.878906 92.183594 336.59375 91.703125 C 336.3125 91.226562 336.003906 90.769531 335.707031 90.304688 C 335.113281 89.382812 334.515625 88.480469 333.917969 87.574219 C 333.332031 86.675781 332.734375 85.777344 332.144531 84.886719 C 331.542969 84.007812 330.894531 83.167969 330.273438 82.316406 C 329.640625 81.46875 329.023438 80.628906 328.390625 79.796875 C 327.761719 78.972656 327.183594 78.117188 326.496094 77.335938 C 325.164062 75.746094 323.851562 74.175781 322.550781 72.621094 C 321.917969 71.835938 321.210938 71.089844 320.523438 70.355469 C 319.839844 69.609375 319.15625 68.882812 318.472656 68.136719 L 316.417969 65.9375 C 315.714844 65.222656 314.980469 64.527344 314.265625 63.828125 C 312.824219 62.4375 311.410156 61.007812 309.9375 59.652344 C 308.433594 58.320312 306.925781 56.980469 305.40625 55.632812 C 305.0625 55.316406 304.707031 55 304.355469 54.683594 C 303.980469 54.375 303.605469 54.0625 303.226562 53.753906 C 302.484375 53.128906 301.71875 52.496094 300.96875 51.855469 C 300.195312 51.207031 299.429688 50.558594 298.65625 49.902344 L 298.066406 49.410156 L 297.460938 48.945312 C 297.066406 48.628906 296.644531 48.320312 296.253906 47.996094 C 294.621094 46.734375 292.992188 45.441406 291.351562 44.1875 C 289.664062 43.003906 287.972656 41.808594 286.320312 40.644531 C 285.171875 39.660156 283.914062 38.761719 282.632812 37.824219 C 281.335938 36.898438 280.011719 35.953125 278.679688 34.988281 C 277.300781 34.078125 275.871094 33.199219 274.4375 32.285156 C 273.007812 31.394531 271.574219 30.429688 270.039062 29.628906 C 268.53125 28.78125 267.023438 27.941406 265.488281 27.09375 L 264.347656 26.460938 C 263.953125 26.261719 263.554688 26.070312 263.179688 25.878906 L 260.828125 24.714844 C 260.042969 24.332031 259.269531 23.949219 258.472656 23.558594 C 257.691406 23.183594 256.941406 22.765625 256.132812 22.441406 C 254.546875 21.742188 252.964844 21.054688 251.417969 20.378906 C 250.59375 20.023438 249.761719 19.640625 248.90625 19.296875 C 248.066406 18.972656 247.207031 18.648438 246.332031 18.324219 C 244.613281 17.683594 242.871094 17.035156 241.101562 16.414062 C 239.3125 15.871094 237.515625 15.332031 235.71875 14.789062 C 234.804688 14.523438 233.902344 14.25 232.980469 14 C 232.082031 13.78125 231.148438 13.566406 230.21875 13.351562 C 228.378906 12.933594 226.523438 12.496094 224.667969 12.113281 C 222.796875 11.804688 220.910156 11.503906 219.042969 11.214844 C 218.097656 11.070312 217.164062 10.921875 216.226562 10.804688 C 215.285156 10.714844 214.34375 10.632812 213.394531 10.546875 C 211.53125 10.382812 209.644531 10.246094 207.789062 10.113281 C 205.734375 10.066406 203.621094 9.988281 201.457031 9.882812 C 200.90625 9.855469 200.359375 9.824219 199.820312 9.796875 L 199.003906 9.742188 L 198.210938 9.734375 C 197.15625 9.722656 196.089844 9.699219 195.019531 9.675781 C 193.953125 9.65625 192.878906 9.617188 191.8125 9.589844 L 191.007812 9.558594 L 190.609375 9.550781 L 190.523438 9.542969 L 190.085938 9.542969 L 188.429688 9.566406 C 186.230469 9.589844 184.042969 9.589844 181.898438 9.582031 C 180.035156 9.632812 178.230469 9.757812 176.457031 9.867188 C 174.675781 10 172.921875 10.082031 171.199219 10.347656 C 167.753906 10.832031 164.367188 11.246094 161 12.027344 C 159.976562 12.246094 158.941406 12.460938 157.910156 12.675781 C 156.886719 12.894531 155.871094 13.09375 154.859375 13.390625 C 152.835938 13.925781 150.832031 14.472656 148.835938 15 C 147.828125 15.246094 146.847656 15.589844 145.855469 15.902344 L 142.917969 16.859375 L 139.964844 17.816406 C 139 18.183594 138.027344 18.542969 137.046875 18.90625 C 131.785156 20.796875 126.585938 23.03125 121.355469 25.527344 C 120.9375 25.644531 120.539062 25.753906 120.125 25.871094 C 119.640625 25.996094 119.167969 26.128906 118.714844 26.285156 C 116.414062 27.007812 114.324219 27.714844 112.292969 28.421875 C 111.792969 28.597656 111.289062 28.789062 110.8125 28.996094 C 110.324219 29.195312 109.824219 29.398438 109.347656 29.597656 C 108.382812 30.011719 107.394531 30.421875 106.410156 30.835938 L 104.332031 31.710938 C 103.632812 32.015625 102.960938 32.351562 102.292969 32.667969 C 100.921875 33.304688 99.546875 33.945312 98.175781 34.59375 C 96.785156 35.203125 95.4375 35.933594 94.050781 36.632812 C 92.660156 37.332031 91.261719 38.039062 89.839844 38.753906 C 80.917969 43.414062 72.285156 49.027344 64.878906 55.492188 C 64.386719 55.914062 63.78125 56.40625 63.207031 56.847656 C 61.761719 58.078125 60.328125 59.335938 58.890625 60.574219 C 58.171875 61.199219 57.433594 61.8125 56.742188 62.453125 L 54.6875 64.425781 C 54.007812 65.074219 53.324219 65.738281 52.648438 66.390625 C 51.96875 67.054688 51.277344 67.6875 50.660156 68.394531 C 49.371094 69.773438 48.105469 71.148438 46.851562 72.535156 C 46.425781 73.019531 45.953125 73.484375 45.550781 73.992188 C 45.128906 74.492188 44.703125 75 44.28125 75.507812 C 43.421875 76.535156 42.566406 77.550781 41.726562 78.558594 C 40.628906 79.832031 39.652344 81.203125 38.632812 82.535156 C 37.640625 83.882812 36.59375 85.203125 35.609375 86.578125 C 34.636719 87.96875 33.648438 89.363281 32.664062 90.777344 C 32.175781 91.492188 31.652344 92.191406 31.160156 92.914062 C 30.675781 93.648438 30.195312 94.394531 29.71875 95.136719 C 26.984375 99.171875 24.703125 103.289062 22.648438 107.554688 C 21.792969 109.476562 20.71875 111.664062 19.621094 113.945312 C 18.605469 116.273438 17.558594 118.695312 16.566406 120.980469 C 17.023438 120.972656 17.957031 119.308594 19.59375 115.734375 C 20.277344 114.085938 21.144531 112.507812 21.949219 110.910156 L 23.179688 108.519531 C 23.582031 107.722656 23.972656 106.914062 24.4375 106.148438 C 26.234375 103.046875 27.949219 99.902344 29.945312 96.917969 L 31.527344 94.453125 C 31.800781 94.046875 32.042969 93.625 32.324219 93.222656 L 33.171875 92.027344 C 34.304688 90.445312 35.429688 88.855469 36.550781 87.261719 C 37.730469 85.710938 38.957031 84.207031 40.171875 82.691406 C 40.792969 81.933594 41.375 81.160156 42.023438 80.429688 L 43.964844 78.257812 C 45.445312 76.664062 46.949219 74.867188 48.605469 73.21875 C 49.414062 72.371094 50.210938 71.527344 51.003906 70.691406 C 51.800781 69.859375 52.550781 69.019531 53.332031 68.277344 C 54.445312 67.179688 55.578125 66.074219 56.710938 64.964844 C 57.277344 64.417969 57.824219 63.851562 58.414062 63.320312 L 60.1875 61.765625 C 61.375 60.730469 62.558594 59.683594 63.746094 58.652344 C 64.945312 57.628906 66.195312 56.679688 67.410156 55.683594 C 68.265625 55 69.132812 54.308594 70.003906 53.613281 C 70.886719 52.9375 71.800781 52.304688 72.691406 51.640625 C 73.582031 50.992188 74.457031 50.34375 75.34375 49.710938 C 75.769531 49.394531 76.195312 49.070312 76.617188 48.761719 C 77.050781 48.460938 77.484375 48.171875 77.898438 47.878906 C 79.5625 46.742188 81.21875 45.632812 82.882812 44.527344 C 84.582031 43.464844 86.335938 42.488281 88.066406 41.476562 C 88.933594 40.992188 89.78125 40.453125 90.671875 40.003906 C 91.5625 39.554688 92.46875 39.097656 93.367188 38.640625 C 94.265625 38.1875 95.15625 37.738281 96.070312 37.28125 L 97.425781 36.601562 L 98.824219 35.984375 C 100.789062 35.113281 102.378906 34.472656 103.914062 33.878906 C 104.683594 33.5625 105.457031 33.316406 106.253906 33.046875 C 106.84375 32.839844 107.453125 32.625 108.09375 32.398438 L 102.816406 35.527344 C 99.304688 37.855469 95.753906 40.101562 92.417969 42.648438 C 91.617188 43.238281 90.789062 43.835938 89.972656 44.4375 L 89.363281 44.886719 L 88.78125 45.367188 C 88.382812 45.683594 87.992188 46.007812 87.601562 46.332031 C 86.054688 47.597656 84.566406 48.835938 83.308594 49.953125 C 81.476562 51.699219 79.855469 53.363281 78.242188 55 C 77.425781 55.792969 76.6875 56.679688 75.910156 57.53125 C 75.144531 58.386719 74.347656 59.257812 73.53125 60.15625 C 73.097656 60.632812 72.609375 61.15625 72.117188 61.707031 C 71.628906 62.277344 71.128906 62.851562 70.636719 63.4375 C 69.640625 64.59375 68.640625 65.707031 67.800781 66.546875 C 60.097656 74.40625 53.488281 83.160156 47.824219 92.660156 C 47.667969 92.914062 47.5 93.171875 47.339844 93.433594 C 47.175781 93.699219 47.035156 93.980469 46.882812 94.261719 C 46.542969 94.804688 46.226562 95.371094 45.902344 95.925781 C 45.253906 97.023438 44.613281 98.074219 44.054688 98.929688 C 39.480469 106.25 36.328125 114.085938 33.496094 122.011719 C 33.230469 122.511719 32.972656 123.003906 32.707031 123.503906 C 32.226562 124.453125 31.816406 125.441406 31.351562 126.398438 C 30.910156 127.355469 30.460938 128.308594 30.027344 129.234375 C 29.820312 129.699219 29.59375 130.15625 29.378906 130.613281 C 29.152344 131.0625 28.945312 131.503906 28.753906 131.945312 C 27.78125 134.148438 26.941406 136.1875 26.144531 138.175781 C 25.941406 138.667969 25.757812 139.167969 25.585938 139.671875 C 25.410156 140.179688 25.242188 140.679688 25.070312 141.179688 C 24.738281 142.183594 24.410156 143.175781 24.0625 144.199219 L 23.355469 146.351562 C 23.128906 147.066406 22.9375 147.792969 22.722656 148.523438 C 22.308594 149.964844 21.882812 151.417969 21.457031 152.875 C 21 154.324219 20.652344 155.820312 20.269531 157.316406 C 19.878906 158.820312 19.476562 160.34375 19.078125 161.882812 C 16.691406 171.664062 15.21875 181.855469 15.183594 191.6875 C 15.183594 192.328125 15.144531 193.117188 15.117188 193.828125 C 15.078125 195.738281 15.078125 197.636719 15.058594 199.542969 C 15.058594 200.488281 15.019531 201.445312 15.050781 202.402344 C 15.085938 203.351562 15.128906 204.296875 15.175781 205.238281 C 15.21875 206.1875 15.253906 207.128906 15.300781 208.074219 C 15.359375 209.015625 15.375 209.957031 15.484375 210.894531 C 15.683594 212.765625 15.875 214.628906 16.09375 216.476562 C 16.175781 217.117188 16.21875 217.765625 16.324219 218.414062 C 16.433594 219.0625 16.53125 219.714844 16.625 220.371094 C 16.832031 221.683594 17.039062 222.992188 17.234375 224.296875 C 17.464844 225.953125 17.855469 227.589844 18.195312 229.238281 C 18.539062 230.882812 18.839844 232.53125 19.21875 234.1875 C 19.628906 235.832031 20.035156 237.496094 20.4375 239.167969 C 20.644531 240.007812 20.824219 240.851562 21.058594 241.699219 C 21.285156 242.546875 21.515625 243.394531 21.765625 244.25 C 22.996094 248.953125 24.578125 253.394531 26.417969 257.753906 C 27.300781 259.664062 28.238281 261.921875 29.222656 264.257812 C 30.304688 266.546875 31.425781 268.925781 32.484375 271.1875 C 32.78125 270.847656 32.164062 269.042969 30.542969 265.464844 C 29.769531 263.84375 29.15625 262.167969 28.488281 260.507812 L 27.5 258.003906 C 27.175781 257.171875 26.824219 256.347656 26.550781 255.488281 C 25.410156 252.097656 24.179688 248.726562 23.253906 245.265625 L 22.457031 242.445312 C 22.308594 241.972656 22.167969 241.507812 22.050781 241.039062 L 21.714844 239.609375 C 21.269531 237.714844 20.824219 235.824219 20.375 233.921875 C 19.976562 232.015625 19.667969 230.09375 19.3125 228.1875 C 19.152344 227.222656 18.964844 226.269531 18.839844 225.304688 L 18.503906 222.40625 C 18.28125 220.246094 17.921875 217.933594 17.78125 215.601562 C 17.679688 214.429688 17.566406 213.265625 17.480469 212.125 C 17.355469 210.980469 17.234375 209.871094 17.191406 208.789062 C 17.105469 207.21875 17.007812 205.644531 16.917969 204.066406 C 16.890625 203.277344 16.816406 202.492188 16.816406 201.703125 L 16.816406 199.339844 C 16.816406 197.761719 16.816406 196.1875 16.816406 194.609375 C 16.851562 193.035156 16.964844 191.464844 17.015625 189.90625 C 17.074219 188.808594 17.117188 187.695312 17.171875 186.589844 C 17.234375 185.484375 17.367188 184.375 17.464844 183.269531 C 17.558594 182.171875 17.664062 181.082031 17.746094 180.007812 C 17.796875 179.46875 17.832031 178.945312 17.890625 178.414062 C 17.949219 177.894531 18.015625 177.382812 18.074219 176.867188 C 18.320312 174.878906 18.578125 172.890625 18.847656 170.917969 C 19.15625 168.945312 19.59375 166.984375 19.96875 165.027344 C 20.175781 164.046875 20.335938 163.058594 20.585938 162.082031 C 20.835938 161.117188 21.09375 160.144531 21.335938 159.15625 C 21.589844 158.183594 21.851562 157.207031 22.109375 156.226562 L 22.5 154.753906 L 22.957031 153.296875 C 23.605469 151.246094 24.179688 149.628906 24.738281 148.082031 C 24.996094 147.300781 25.328125 146.554688 25.644531 145.78125 C 25.96875 145.007812 26.300781 144.214844 26.632812 143.339844 L 27.863281 140.113281 C 28.28125 139.035156 28.761719 137.992188 29.210938 136.9375 L 30.570312 133.765625 L 30.71875 133.34375 C 30.378906 135.449219 30.078125 137.496094 29.851562 139.390625 C 29.804688 139.863281 29.953125 139.804688 30.152344 139.507812 C 30.261719 139.355469 30.378906 139.148438 30.503906 138.910156 C 30.636719 138.683594 30.769531 138.417969 30.902344 138.160156 C 31.394531 137.160156 31.910156 135.980469 32.441406 134.664062 C 32.707031 134 32.980469 133.292969 33.25 132.5625 C 33.382812 132.195312 33.515625 131.820312 33.648438 131.429688 C 33.8125 131.054688 33.964844 130.664062 34.113281 130.265625 C 34.761719 128.675781 35.417969 126.945312 36.085938 125.101562 C 36.25 124.640625 36.410156 124.167969 36.59375 123.6875 C 36.792969 123.226562 36.984375 122.746094 37.175781 122.261719 C 37.558594 121.296875 37.964844 120.292969 38.371094 119.277344 C 39.3125 116.90625 40.328125 114.558594 41.386719 112.222656 C 43.957031 107.8125 46.691406 103.480469 49.519531 99.539062 C 50.171875 98.582031 50.851562 97.589844 51.535156 96.609375 C 52.234375 95.660156 52.957031 94.714844 53.613281 93.816406 C 54.953125 92.007812 56.035156 90.378906 56.761719 89.148438 C 55.570312 90.328125 54.445312 91.542969 53.238281 92.824219 C 52.648438 93.472656 52.042969 94.128906 51.441406 94.789062 C 51.136719 95.128906 50.820312 95.453125 50.535156 95.804688 C 50.246094 96.160156 49.960938 96.519531 49.664062 96.882812 C 49.320312 97.308594 48.980469 97.757812 48.613281 98.191406 C 49.746094 96.21875 50.902344 94.261719 52.085938 92.339844 C 52.898438 91.035156 53.714844 89.730469 54.519531 88.425781 C 55.386719 87.167969 56.25 85.910156 57.101562 84.65625 C 58.765625 82.117188 60.585938 79.757812 62.273438 77.425781 C 65.703125 72.792969 69.054688 68.601562 71.800781 65.023438 C 72.550781 64.277344 73.191406 63.59375 73.804688 63.035156 C 74.414062 62.472656 74.953125 61.988281 75.421875 61.5625 C 76.371094 60.699219 77.066406 60.066406 77.667969 59.566406 C 78.25 59.058594 78.738281 58.667969 79.246094 58.285156 C 79.753906 57.902344 80.3125 57.5625 81.035156 57.105469 C 82.167969 56.382812 83.242188 55.65625 84.496094 54.691406 C 84.796875 54.445312 85.121094 54.183594 85.453125 53.917969 C 85.777344 53.636719 86.136719 53.347656 86.511719 53.0625 C 87.277344 52.472656 88.101562 51.804688 89.023438 51.023438 C 89.886719 50.308594 90.804688 49.5625 91.769531 48.804688 C 92.734375 48.070312 93.78125 47.371094 94.753906 46.664062 L 97.152344 44.945312 L 98.367188 44.085938 C 98.765625 43.796875 99.183594 43.539062 99.597656 43.273438 L 104.582031 40.0625 C 104.988281 39.792969 105.40625 39.535156 105.847656 39.296875 L 107.121094 38.5625 L 109.683594 37.089844 C 110.546875 36.609375 111.386719 36.109375 112.253906 35.644531 C 113.132812 35.195312 114 34.761719 114.875 34.320312 C 115.839844 33.847656 116.792969 33.363281 117.75 32.882812 L 119.191406 32.167969 L 120.65625 31.519531 C 122.628906 30.667969 124.589844 29.8125 126.546875 28.957031 C 128.542969 28.214844 130.523438 27.484375 132.476562 26.757812 C 132.960938 26.578125 133.441406 26.402344 133.933594 26.226562 C 134.417969 26.070312 134.914062 25.921875 135.40625 25.769531 C 136.371094 25.472656 137.34375 25.179688 138.300781 24.894531 C 139.582031 24.515625 140.8125 24.113281 142.046875 23.78125 C 143.277344 23.464844 144.476562 23.148438 145.671875 22.816406 C 146.855469 22.492188 148.027344 22.160156 149.207031 21.808594 C 150.105469 21.570312 150.996094 21.34375 151.894531 21.101562 C 153.527344 20.878906 155.148438 20.679688 156.730469 20.527344 C 157.886719 20.386719 159.085938 20.246094 160.257812 20.113281 C 161.445312 20.015625 162.613281 19.921875 163.734375 19.824219 C 165.980469 19.640625 167.917969 19.382812 169.316406 19.113281 C 167.644531 18.992188 165.996094 18.941406 164.21875 18.890625 C 163.351562 18.875 162.46875 18.855469 161.5625 18.839844 C 161.511719 18.839844 161.457031 18.839844 161.398438 18.832031 C 161.929688 18.722656 162.460938 18.617188 162.988281 18.507812 C 163.859375 18.332031 164.726562 18.140625 165.597656 17.984375 C 166.464844 17.84375 167.347656 17.703125 168.21875 17.566406 C 169.957031 17.285156 171.695312 16.992188 173.410156 16.679688 C 175.472656 16.410156 177.671875 16.15625 179.957031 15.90625 C 180.53125 15.847656 181.089844 15.789062 181.679688 15.722656 C 182.261719 15.679688 182.847656 15.65625 183.429688 15.628906 C 184.609375 15.570312 185.808594 15.515625 187.023438 15.464844 C 188.21875 15.421875 189.445312 15.339844 190.648438 15.332031 C 191.878906 15.339844 193.097656 15.347656 194.328125 15.371094 C 195.558594 15.378906 196.78125 15.398438 198.003906 15.40625 C 198.613281 15.40625 199.226562 15.4375 199.820312 15.472656 C 200.425781 15.511719 201.023438 15.546875 201.632812 15.582031 C 213.84375 16.203125 226.273438 18.492188 237.90625 21.585938 C 242.804688 22.902344 247.871094 24.5625 252.40625 26.1875 C 253.421875 26.550781 254.460938 26.859375 255.445312 27.257812 C 256.441406 27.648438 257.425781 28.042969 258.421875 28.433594 C 260.402344 29.230469 262.398438 29.945312 264.3125 30.851562 C 266.226562 31.726562 268.171875 32.574219 270.085938 33.449219 C 271.96875 34.40625 273.847656 35.359375 275.726562 36.316406 C 276.203125 36.558594 276.691406 36.800781 277.167969 37.050781 C 277.648438 37.316406 278.105469 37.574219 278.554688 37.824219 C 279.453125 38.3125 280.289062 38.746094 280.910156 39.039062 C 284.039062 40.394531 287.566406 42.671875 291.308594 45.195312 C 293.101562 46.542969 294.953125 47.964844 296.800781 49.417969 C 297.734375 50.125 298.597656 50.933594 299.488281 51.707031 C 300.355469 52.480469 301.238281 53.261719 302.09375 54.027344 C 302.652344 54.542969 303.222656 55.027344 303.765625 55.558594 L 305.394531 57.164062 C 306.453125 58.230469 307.535156 59.308594 308.605469 60.375 C 308.867188 60.640625 309.140625 60.90625 309.40625 61.179688 L 310.171875 62.019531 C 310.671875 62.578125 311.179688 63.136719 311.6875 63.695312 C 312.691406 64.816406 313.699219 65.921875 314.691406 67.039062 C 315.636719 68.195312 316.5625 69.34375 317.484375 70.480469 C 318.40625 71.628906 319.347656 72.734375 320.1875 73.898438 C 321.027344 75.066406 321.859375 76.214844 322.675781 77.359375 C 323.085938 77.925781 323.492188 78.492188 323.890625 79.050781 C 324.089844 79.339844 324.289062 79.613281 324.480469 79.890625 C 324.679688 80.1875 324.847656 80.472656 325.03125 80.753906 C 326.1875 82.558594 327.351562 84.355469 328.53125 86.144531 C 329.375 87.5 330.1875 88.875 331.011719 90.238281 C 330.628906 89.8125 330.222656 89.371094 329.839844 88.933594 L 327.851562 86.726562 C 327.183594 86.011719 326.476562 85.3125 325.78125 84.613281 C 324.375 83.207031 323.019531 81.777344 321.585938 80.40625 C 320.121094 79.066406 318.65625 77.71875 317.195312 76.363281 C 316.859375 76.039062 316.503906 75.730469 316.160156 75.40625 C 315.804688 75.097656 315.429688 74.796875 315.070312 74.484375 C 314.339844 73.859375 313.589844 73.226562 312.835938 72.585938 C 312.09375 71.945312 311.328125 71.304688 310.570312 70.640625 L 310.003906 70.15625 L 309.398438 69.683594 C 309 69.375 308.605469 69.058594 308.199219 68.75 C 306.59375 67.503906 304.996094 66.222656 303.367188 64.984375 C 301.695312 63.808594 300.03125 62.628906 298.398438 61.472656 C 297.226562 60.539062 295.953125 59.691406 294.65625 58.808594 C 293.367188 57.921875 292.042969 57.015625 290.695312 56.109375 C 289.320312 55.234375 287.898438 54.402344 286.476562 53.535156 C 285.027344 52.679688 283.613281 51.765625 282.085938 50.992188 C 280.578125 50.199219 279.082031 49.386719 277.558594 48.578125 L 276.425781 47.972656 C 276.042969 47.78125 275.636719 47.605469 275.269531 47.414062 L 272.933594 46.316406 C 272.152344 45.949219 271.382812 45.578125 270.613281 45.21875 C 269.828125 44.859375 269.078125 44.460938 268.273438 44.152344 C 266.710938 43.496094 265.144531 42.847656 263.605469 42.207031 C 262.789062 41.867188 261.964844 41.507812 261.125 41.191406 C 260.285156 40.882812 259.4375 40.578125 258.574219 40.277344 C 256.875 39.671875 255.160156 39.054688 253.421875 38.464844 C 251.667969 37.949219 249.886719 37.425781 248.121094 36.90625 C 247.230469 36.652344 246.332031 36.382812 245.4375 36.136719 C 244.8125 36 244.179688 35.84375 243.5625 35.703125 C 236.085938 32.101562 228.464844 28.941406 220.683594 26.179688 C 218.980469 25.511719 216.90625 24.988281 215 24.429688 C 213.070312 23.890625 210.867188 23.25 209.269531 22.867188 C 205.839844 21.9375 202.636719 21.160156 199.308594 20.746094 C 194.75 19.996094 189.976562 19.605469 185.78125 19.304688 C 184.0625 19.257812 182.980469 19.433594 182.730469 19.605469 C 182.5625 19.730469 183.195312 19.863281 184.167969 19.996094 C 184.652344 20.070312 185.226562 20.136719 185.839844 20.195312 C 186.433594 20.28125 187.0625 20.371094 187.664062 20.460938 C 189.269531 20.6875 190.882812 20.910156 192.488281 21.136719 C 193.289062 21.261719 194.109375 21.335938 194.886719 21.496094 C 195.691406 21.652344 196.492188 21.800781 197.296875 21.945312 C 198.910156 22.242188 200.523438 22.535156 202.140625 22.832031 C 203.769531 23.160156 205.382812 23.550781 207.039062 23.898438 C 208.671875 24.273438 210.351562 24.5625 211.988281 25.046875 C 213.636719 25.496094 215.285156 25.953125 216.925781 26.410156 C 218.585938 26.835938 220.183594 27.449219 221.773438 28 C 223.355469 28.582031 224.9375 29.148438 226.441406 29.789062 C 226.875 29.988281 227.753906 30.289062 228.414062 30.554688 C 231.457031 31.71875 234.460938 32.980469 237.421875 34.320312 C 237.367188 34.304688 237.316406 34.289062 237.265625 34.28125 C 235.425781 33.972656 233.589844 33.664062 231.75 33.355469 C 230.824219 33.207031 229.917969 33.046875 228.980469 32.914062 C 228.070312 32.808594 227.140625 32.714844 226.21875 32.609375 C 224.371094 32.425781 222.53125 32.234375 220.710938 32.050781 C 218.71875 31.957031 216.648438 31.84375 214.527344 31.710938 C 213.996094 31.675781 213.46875 31.636719 212.929688 31.609375 L 212.125 31.558594 L 211.332031 31.542969 C 210.277344 31.519531 209.21875 31.5 208.144531 31.476562 C 207.082031 31.445312 206.007812 31.417969 204.945312 31.386719 L 204.136719 31.359375 L 203.730469 31.351562 L 203.253906 31.351562 L 202.894531 31.359375 C 201.78125 31.242188 200.675781 31.152344 199.578125 31.050781 L 196.75 30.800781 C 195.816406 30.71875 194.867188 30.628906 193.929688 30.609375 L 188.269531 30.378906 L 186.863281 30.328125 L 185.433594 30.34375 L 182.605469 30.363281 C 178.835938 30.320312 175.074219 30.628906 171.3125 30.828125 C 169.449219 30.96875 167.570312 31.203125 165.699219 31.386719 L 162.894531 31.683594 C 161.957031 31.808594 161.039062 31.960938 160.101562 32.101562 C 158.917969 32.285156 157.578125 32.492188 156.648438 32.675781 C 148.167969 34.527344 138.734375 36.890625 128.609375 40.351562 C 127.203125 40.835938 125.8125 41.335938 124.457031 41.832031 C 114.597656 45.660156 105.121094 50.167969 95.96875 55.277344 C 94.324219 56.117188 92.578125 57.328125 90.902344 58.394531 C 89.230469 59.484375 87.300781 60.722656 85.953125 61.664062 C 82.984375 63.625 80.289062 65.523438 77.777344 67.761719 C 74.199219 70.679688 70.769531 74.007812 67.757812 76.96875 C 66.601562 78.21875 66.011719 79.15625 65.988281 79.457031 C 65.960938 79.664062 66.484375 79.273438 67.234375 78.632812 C 67.601562 78.308594 68.03125 77.925781 68.472656 77.519531 C 68.941406 77.121094 69.414062 76.710938 69.886719 76.320312 C 71.113281 75.257812 72.34375 74.199219 73.574219 73.144531 C 74.199219 72.621094 74.789062 72.054688 75.4375 71.578125 C 76.085938 71.078125 76.710938 70.574219 77.367188 70.066406 C 78.648438 69.058594 79.929688 68.035156 81.234375 67.011719 C 82.550781 66.015625 83.90625 65.058594 85.261719 64.050781 C 86.617188 63.0625 87.949219 61.996094 89.382812 61.082031 C 90.8125 60.140625 92.242188 59.203125 93.667969 58.261719 C 95.074219 57.304688 96.585938 56.507812 98.058594 55.683594 C 99.539062 54.875 101.003906 54.070312 102.484375 53.355469 C 102.917969 53.164062 103.726562 52.703125 104.355469 52.378906 C 114.679688 46.941406 125.589844 42.605469 136.8125 39.453125 C 138.367188 38.964844 139.957031 38.570312 141.546875 38.191406 C 77.667969 57.78125 31.226562 117.265625 31.226562 187.605469 C 31.226562 211.601562 36.648438 234.3125 46.300781 254.632812 C 46.308594 254.648438 46.308594 254.660156 46.316406 254.675781 C 44.453125 251.082031 42.757812 247.371094 41.285156 243.519531 C 39.976562 239.828125 38.207031 235.625 36.964844 231.523438 C 33.886719 222.082031 31.375 213.226562 29.796875 203.742188 C 29.496094 201.769531 29.210938 199.832031 28.914062 197.953125 C 28.847656 197.484375 28.753906 197.011719 28.703125 196.539062 C 28.65625 196.074219 28.605469 195.597656 28.570312 195.140625 C 28.457031 194.210938 28.347656 193.292969 28.253906 192.386719 C 28.148438 191.480469 28.046875 190.582031 27.933594 189.691406 C 27.875 189.25 27.816406 188.808594 27.78125 188.371094 C 27.742188 187.929688 27.714844 187.496094 27.679688 187.0625 C 27.53125 185.324219 27.40625 183.621094 27.273438 181.957031 C 27.234375 181.539062 27.191406 181.125 27.15625 180.722656 L 27.132812 180.402344 L 27.117188 180.25 L 27.117188 180.125 C 27.109375 180.144531 27.117188 180.066406 27.109375 180.167969 L 27.109375 180.144531 L 27.082031 179.527344 C 27.042969 178.703125 27.007812 177.886719 26.972656 177.089844 C 26.890625 175.476562 26.792969 173.910156 26.699219 172.375 C 26.632812 171.597656 26.648438 170.867188 26.632812 170.125 C 26.601562 169.386719 26.589844 168.65625 26.566406 167.9375 C 26.523438 166.492188 26.460938 165.085938 26.394531 163.695312 C 25.941406 164.851562 25.433594 166.042969 25.070312 166.941406 C 24.960938 167.890625 24.84375 168.828125 24.730469 169.746094 C 24.621094 170.667969 24.480469 171.582031 24.445312 172.480469 C 24.296875 174.261719 24.171875 176.015625 24.046875 177.722656 C 23.980469 178.601562 23.898438 179.410156 23.863281 180.324219 C 23.847656 181.175781 23.828125 182.039062 23.820312 182.886719 C 23.789062 184.59375 23.761719 186.3125 23.738281 188.035156 C 23.863281 197.292969 24.636719 206.660156 26.542969 216.160156 C 28.597656 226.308594 31.714844 236.332031 35.792969 245.984375 C 39.855469 255.648438 44.878906 264.921875 50.644531 273.648438 C 51.933594 275.59375 53.488281 277.492188 54.902344 279.4375 C 55.8125 280.726562 57.234375 282.277344 57.800781 283.105469 C 58.746094 284.503906 59.730469 285.871094 60.753906 287.199219 C 61.84375 288.488281 62.949219 289.753906 64.0625 291.011719 L 64.78125 291.824219 C 64.839844 291.910156 64.894531 292 64.953125 292.097656 C 66.246094 294.027344 67.734375 295.941406 69.132812 297.882812 C 70.019531 299.171875 71.402344 300.742188 71.960938 301.546875 C 72.964844 302.894531 73.964844 304.234375 74.988281 305.542969 C 76.070312 306.816406 77.160156 308.078125 78.257812 309.328125 L 79.90625 311.191406 C 80.460938 311.8125 81.0625 312.394531 81.628906 312.996094 L 85.113281 316.574219 C 85.628906 317.136719 86.1875 317.644531 86.734375 318.160156 L 88.390625 319.714844 C 89.488281 320.746094 90.585938 321.78125 91.695312 322.800781 L 95.136719 325.722656 L 96.859375 327.1875 C 97.160156 327.429688 97.433594 327.6875 97.726562 327.917969 L 98.625 328.617188 C 99.824219 329.546875 101.019531 330.472656 102.210938 331.402344 L 103.984375 332.800781 L 105.847656 334.132812 C 107.09375 335.023438 108.332031 335.914062 109.558594 336.8125 L 110.054688 337.167969 C 109.421875 336.925781 108.78125 336.6875 108.160156 336.425781 L 105.6875 335.445312 L 103.234375 334.347656 L 98.367188 332.152344 C 96.777344 331.351562 95.195312 330.546875 93.617188 329.742188 C 92.816406 329.339844 92.019531 328.964844 91.230469 328.535156 L 88.914062 327.226562 C 87.382812 326.347656 85.8125 325.503906 84.289062 324.605469 C 82.777344 323.660156 81.277344 322.726562 79.78125 321.78125 C 79.03125 321.296875 78.265625 320.863281 77.542969 320.347656 L 75.363281 318.835938 L 73.175781 317.335938 C 72.457031 316.8125 71.710938 316.347656 71.019531 315.796875 C 69.3125 314.492188 67.617188 313.253906 65.929688 311.945312 C 58.429688 305.832031 51.5 299.035156 45.34375 291.648438 C 44.820312 291.027344 44.269531 290.386719 43.695312 289.753906 C 43.125 289.121094 42.605469 288.4375 42.074219 287.796875 C 41.359375 286.902344 40.652344 286.027344 39.929688 285.144531 C 39.222656 284.261719 38.464844 283.414062 37.824219 282.46875 C 35.867188 279.746094 33.789062 277.035156 32 274.164062 C 31.078125 272.742188 30.128906 271.351562 29.253906 269.941406 C 28.390625 268.515625 27.546875 267.101562 26.71875 265.714844 C 25.308594 263.507812 24.089844 261.03125 22.808594 258.726562 C 21.476562 256.4375 20.417969 254.144531 19.363281 252.335938 C 17.457031 248.96875 17.105469 248.910156 18.738281 253.253906 C 19.179688 254.425781 19.695312 255.738281 20.21875 257.054688 C 20.800781 258.351562 21.390625 259.65625 21.925781 260.839844 C 22.421875 261.960938 22.929688 263.09375 23.472656 264.257812 C 24.019531 265.40625 24.660156 266.554688 25.292969 267.734375 C 25.941406 268.90625 26.582031 270.113281 27.257812 271.335938 C 27.964844 272.535156 28.746094 273.722656 29.527344 274.953125 C 33.03125 280.605469 37.066406 285.933594 41.210938 291.109375 C 45.542969 296.152344 50.003906 301.050781 54.886719 305.382812 C 56.277344 306.625 57.722656 308.070312 59.222656 309.308594 C 71.136719 319.964844 84.589844 328.910156 99.050781 335.738281 L 104.257812 338.125 C 106.011719 338.863281 107.785156 339.546875 109.566406 340.261719 L 112.226562 341.320312 L 114.921875 342.257812 C 116.71875 342.867188 118.515625 343.53125 120.347656 344.097656 C 120.898438 344.265625 121.460938 344.421875 122.019531 344.589844 C 131.164062 349.585938 140.738281 353.671875 150.625 357.316406 C 151.179688 357.515625 151.914062 357.773438 152.71875 358.023438 C 153.117188 358.15625 153.527344 358.289062 153.941406 358.429688 C 154.351562 358.539062 154.765625 358.648438 155.148438 358.761719 C 158.984375 359.894531 162.871094 360.890625 166.773438 361.742188 C 163.761719 361.457031 160.707031 361.226562 157.695312 360.726562 C 156.023438 360.476562 154.351562 360.269531 152.703125 360.003906 C 151.074219 359.710938 149.449219 359.410156 147.863281 359.113281 C 145.289062 358.722656 142.609375 358.003906 140.023438 357.449219 C 137.4375 356.933594 135.023438 356.210938 132.945312 355.816406 C 129.167969 355.027344 128.882812 355.253906 133.21875 356.898438 C 134.398438 357.339844 135.714844 357.8125 137.054688 358.289062 C 138.410156 358.703125 139.789062 359.121094 141.03125 359.511719 C 142.195312 359.878906 143.386719 360.242188 144.617188 360.609375 C 145.847656 360.949219 147.121094 361.226562 148.441406 361.539062 C 149.734375 361.824219 151.082031 362.132812 152.4375 362.4375 C 153.816406 362.695312 155.222656 362.898438 156.640625 363.128906 C 163.210938 364.226562 169.890625 364.703125 176.507812 365.007812 C 180.015625 365.042969 183.511719 365.027344 186.996094 364.886719 C 187.511719 364.941406 188.046875 365.007812 188.570312 365.042969 C 190.609375 365.199219 192.648438 365.335938 194.691406 365.492188 C 196.730469 365.574219 198.761719 365.601562 200.78125 365.652344 C 201.816406 365.660156 202.789062 365.714844 203.859375 365.707031 C 204.875 365.675781 205.875 365.648438 206.890625 365.617188 C 207.914062 365.585938 208.929688 365.566406 209.945312 365.527344 C 210.949219 365.484375 211.957031 365.5 212.964844 365.394531 C 214.976562 365.226562 216.972656 365.058594 218.976562 364.894531 L 220.453125 364.769531 L 221.933594 364.570312 C 222.914062 364.4375 223.902344 364.300781 224.871094 364.160156 C 228.796875 363.695312 232.589844 362.839844 236.324219 362.097656 C 236.839844 362.007812 237.367188 361.859375 237.882812 361.730469 C 238.414062 361.597656 238.9375 361.457031 239.476562 361.324219 C 240.542969 361.042969 241.617188 360.769531 242.699219 360.5 C 244.878906 360 247.050781 359.285156 249.246094 358.65625 C 250.328125 358.347656 251.375 358.039062 252.414062 357.738281 C 253.449219 357.421875 254.445312 357.042969 255.429688 356.707031 C 256.410156 356.359375 257.375 356.019531 258.339844 355.683594 C 258.820312 355.511719 259.296875 355.34375 259.769531 355.175781 L 260.476562 354.925781 L 261.167969 354.636719 C 263 353.871094 264.804688 353.113281 266.601562 352.367188 L 267.949219 351.792969 L 269.261719 351.160156 C 270.136719 350.734375 271.011719 350.304688 271.902344 349.878906 C 273.140625 349.269531 274.40625 348.6875 275.644531 348.03125 C 276.890625 347.359375 278.132812 346.683594 279.386719 345.996094 C 280.027344 345.652344 280.660156 345.3125 281.292969 344.972656 L 282.257812 344.445312 L 283.191406 343.882812 C 284.4375 343.140625 285.71875 342.367188 287 341.601562 C 287.648438 341.21875 288.289062 340.828125 288.9375 340.445312 C 289.570312 340.03125 290.203125 339.613281 290.84375 339.191406 C 292.132812 338.359375 293.421875 337.515625 294.730469 336.652344 C 295.0625 336.429688 295.378906 336.226562 295.71875 336.003906 C 296.035156 335.777344 296.351562 335.546875 296.683594 335.320312 C 297.328125 334.855469 297.964844 334.398438 298.625 333.933594 C 299.929688 332.984375 301.277344 332.085938 302.59375 331.09375 C 304.640625 329.488281 306.726562 327.933594 308.75 326.335938 C 310.722656 324.667969 312.691406 323.011719 314.597656 321.328125 C 320.738281 315.65625 326.289062 309.851562 331.511719 303.703125 C 332.769531 302.125 334.039062 300.550781 335.304688 298.976562 C 335.953125 298.207031 336.527344 297.355469 337.121094 296.535156 C 337.71875 295.710938 338.324219 294.886719 338.910156 294.0625 C 339.515625 293.230469 340.125 292.398438 340.703125 291.558594 C 341.261719 290.691406 341.820312 289.820312 342.386719 288.953125 C 342.945312 288.066406 343.515625 287.199219 344.082031 286.308594 C 344.351562 285.867188 344.632812 285.421875 344.921875 284.972656 C 345.171875 284.519531 345.441406 284.0625 345.695312 283.589844 C 346.710938 281.828125 347.742188 280.019531 348.792969 278.207031 C 349.75 276.34375 350.738281 274.457031 351.710938 272.585938 L 352.4375 271.1875 C 352.675781 270.714844 352.878906 270.222656 353.09375 269.75 C 353.535156 268.800781 353.964844 267.859375 354.390625 266.925781 C 354.816406 265.972656 355.238281 265.054688 355.640625 264.140625 C 356.046875 263.21875 356.386719 262.277344 356.722656 261.371094 C 357.136719 260.304688 357.550781 259.242188 357.960938 258.175781 C 358.367188 257.097656 358.785156 256.023438 359.132812 254.917969 C 359.839844 252.726562 360.5625 250.515625 361.28125 248.3125 C 361.894531 246.074219 362.511719 243.835938 363.117188 241.605469 C 363.453125 240.5 363.660156 239.359375 363.910156 238.238281 C 364.152344 237.113281 364.398438 235.992188 364.640625 234.878906 C 365.175781 232.671875 365.480469 230.425781 365.855469 228.230469 C 366.015625 227.132812 366.195312 226.042969 366.371094 224.96875 C 366.539062 223.886719 366.613281 222.800781 366.730469 221.734375 C 366.839844 220.675781 366.960938 219.613281 367.054688 218.566406 C 367.105469 218.042969 367.164062 217.527344 367.210938 217.015625 L 367.289062 216.234375 L 367.328125 215.46875 C 367.410156 213.417969 367.480469 211.4375 367.5625 209.515625 C 367.570312 208.898438 367.660156 208.023438 367.636719 207.203125 C 367.652344 206.386719 367.652344 205.648438 367.621094 205.332031 C 367.480469 203.566406 367.304688 202.636719 367.164062 200.980469 C 366.863281 197.386719 366.347656 199.765625 365.90625 206.6875 C 365.890625 207.035156 365.863281 207.375 365.847656 207.726562 C 365.816406 208.066406 365.773438 208.398438 365.738281 208.734375 C 365.65625 209.414062 365.582031 210.089844 365.5 210.789062 C 365.363281 212.160156 365.222656 213.550781 365.082031 214.964844 C 365.050781 215.328125 365 215.671875 364.972656 216.035156 C 364.917969 216.394531 364.859375 216.757812 364.808594 217.109375 C 364.707031 217.832031 364.589844 218.554688 364.484375 219.289062 C 364.273438 220.746094 364.058594 222.21875 363.851562 223.714844 C 363.601562 225.203125 363.292969 226.691406 363.011719 228.207031 C 362.878906 228.960938 362.734375 229.71875 362.59375 230.484375 C 362.4375 231.242188 362.328125 232.015625 362.121094 232.773438 C 361.761719 234.292969 361.398438 235.832031 361.039062 237.371094 C 360.863281 238.144531 360.679688 238.910156 360.5 239.6875 C 360.304688 240.460938 360.066406 241.230469 359.855469 242 L 358.394531 247.136719 C 357.878906 248.828125 357.269531 250.507812 356.71875 252.203125 L 355.878906 254.726562 C 355.589844 255.566406 355.25 256.390625 354.933594 257.226562 C 354.28125 258.882812 353.640625 260.539062 353 262.1875 C 352.425781 263.542969 351.796875 264.882812 351.203125 266.21875 C 350.597656 267.542969 350.046875 268.875 349.425781 270.164062 C 348.800781 271.445312 348.175781 272.707031 347.570312 273.933594 C 347.277344 274.554688 346.976562 275.164062 346.703125 275.769531 C 346.554688 276.078125 346.414062 276.378906 346.28125 276.675781 C 346.128906 276.96875 345.980469 277.257812 345.824219 277.542969 C 345.199219 278.765625 344.300781 280.402344 343.316406 282.152344 C 343.078125 282.589844 342.828125 283.03125 342.570312 283.488281 C 342.3125 283.9375 342.027344 284.363281 341.769531 284.804688 C 341.210938 285.679688 340.679688 286.550781 340.15625 287.375 C 337.144531 292.332031 332.917969 297.882812 330.257812 301.464844 C 329.78125 302.097656 329.347656 302.773438 328.816406 303.394531 C 328.308594 304.019531 327.785156 304.652344 327.261719 305.292969 C 326.210938 306.566406 325.140625 307.863281 324.039062 309.160156 C 322.882812 310.40625 321.710938 311.664062 320.546875 312.914062 L 318.765625 314.808594 L 316.917969 316.613281 L 313.632812 319.800781 C 312.519531 320.847656 311.34375 321.828125 310.207031 322.851562 L 308.484375 324.367188 C 307.910156 324.875 307.34375 325.382812 306.734375 325.863281 C 305.539062 326.8125 304.324219 327.769531 303.117188 328.726562 L 301.3125 330.164062 C 300.671875 330.613281 300.054688 331.0625 299.414062 331.503906 C 298.148438 332.410156 296.878906 333.308594 295.621094 334.207031 C 294.980469 334.664062 294.3125 335.089844 293.65625 335.503906 C 292.992188 335.921875 292.335938 336.34375 291.667969 336.761719 C 290.335938 337.585938 289.015625 338.464844 287.632812 339.257812 C 277.257812 345.289062 265.851562 350.453125 254.121094 354.195312 C 253.414062 354.429688 252.714844 354.660156 252.015625 354.894531 C 251.292969 355.09375 250.578125 355.292969 249.863281 355.492188 C 248.4375 355.902344 246.992188 356.300781 245.550781 356.714844 C 244.121094 357.15625 242.632812 357.433594 241.175781 357.789062 C 239.71875 358.121094 238.246094 358.457031 236.792969 358.796875 C 235.351562 359.101562 233.429688 359.410156 232.539062 359.542969 C 231.015625 359.734375 229.636719 359.960938 228.253906 360.210938 C 226.867188 360.394531 225.46875 360.609375 223.921875 360.84375 C 222.863281 361 221.757812 361.167969 220.625 361.339844 C 219.488281 361.5 218.328125 361.589844 217.179688 361.699219 C 216.027344 361.800781 214.894531 361.898438 213.804688 362 C 213.261719 362.046875 212.738281 362.089844 212.214844 362.125 C 211.867188 362.15625 211.539062 362.164062 211.191406 362.164062 C 223.910156 359.910156 236.351562 356.175781 248.199219 351.050781 L 253.414062 348.714844 C 255.136719 347.882812 256.824219 346.992188 258.523438 346.144531 L 261.070312 344.839844 L 263.554688 343.425781 C 265.203125 342.476562 266.890625 341.570312 268.5 340.578125 C 270.378906 339.398438 272.242188 338.222656 274.097656 337.042969 C 275.039062 336.484375 275.917969 335.8125 276.824219 335.195312 L 279.503906 333.277344 C 287.582031 327.351562 295.144531 320.640625 301.941406 313.351562 C 302.792969 312.429688 303.648438 311.503906 304.496094 310.574219 C 305.328125 309.652344 306.21875 308.746094 307 307.769531 C 308.601562 305.847656 310.230469 303.953125 311.820312 302.023438 C 313.34375 300.035156 314.855469 298.023438 316.386719 296.015625 C 317.851562 293.960938 319.242188 291.816406 320.671875 289.679688 C 324.625 283.316406 328.433594 276.769531 331.59375 269.855469 L 332.808594 267.285156 C 333.21875 266.421875 333.550781 265.539062 333.925781 264.664062 L 336.121094 259.398438 C 336.785156 257.609375 337.417969 255.816406 338.066406 254.035156 C 338.074219 254.007812 338.09375 253.976562 338.101562 253.949219 C 338.199219 253.75 338.308594 253.550781 338.402344 253.351562 L 339.140625 251.957031 C 339.382812 251.488281 339.597656 251.007812 339.816406 250.539062 C 340.25 249.59375 340.6875 248.644531 341.121094 247.710938 C 341.539062 246.773438 341.960938 245.847656 342.371094 244.925781 C 342.761719 244.003906 343.085938 243.0625 343.433594 242.148438 C 343.832031 241.089844 344.226562 240.007812 344.617188 238.9375 C 345.015625 237.871094 345.429688 236.789062 345.746094 235.683594 C 346.445312 233.480469 347.136719 231.277344 347.835938 229.0625 C 348.425781 226.824219 349.023438 224.578125 349.605469 222.347656 C 349.921875 221.242188 350.117188 220.105469 350.363281 218.980469 C 350.589844 217.851562 350.820312 216.742188 351.039062 215.621094 C 351.554688 213.40625 351.828125 211.167969 352.144531 208.972656 C 352.304688 207.875 352.460938 206.785156 352.609375 205.710938 C 352.753906 204.632812 352.808594 203.542969 352.910156 202.484375 C 352.984375 201.414062 353.066406 200.363281 353.136719 199.316406 C 353.175781 198.785156 353.203125 198.269531 353.242188 197.753906 L 353.300781 196.988281 L 353.316406 196.214844 C 353.328125 194.183594 353.34375 192.210938 353.316406 190.308594 C 353.300781 189.691406 353.375 188.835938 353.34375 188.003906 C 353.328125 187.1875 353.316406 186.449219 353.257812 186.140625 C 352.945312 184.367188 352.570312 183.429688 352.246094 181.773438 C 351.554688 178.164062 350.589844 180.535156 349.890625 187.460938 C 349.855469 187.804688 349.824219 188.144531 349.78125 188.496094 C 349.742188 188.835938 349.683594 189.144531 349.632812 189.476562 C 349.539062 190.140625 349.441406 190.796875 349.351562 191.464844 C 349.160156 192.800781 348.984375 194.152344 348.800781 195.523438 C 348.765625 195.871094 348.710938 196.207031 348.675781 196.554688 C 348.609375 196.910156 348.550781 197.253906 348.492188 197.609375 C 348.375 198.316406 348.25 199.015625 348.136719 199.730469 C 347.917969 201.15625 347.683594 202.601562 347.4375 204.058594 C 347.277344 204.964844 347.085938 205.871094 346.902344 206.777344 C 346.914062 206.488281 346.929688 206.210938 346.953125 205.921875 C 346.980469 205.4375 347.011719 204.964844 347.019531 204.488281 L 347.035156 203.050781 L 347.046875 200.171875 C 347.054688 199.214844 347.0625 198.257812 347.0625 197.296875 C 347.078125 196.339844 346.988281 195.390625 346.960938 194.433594 C 346.871094 192.535156 346.777344 190.625 346.695312 188.742188 C 345.855469 177.804688 344.023438 166.847656 341.019531 156.34375 C 340.605469 154.980469 340.199219 153.566406 339.796875 152.144531 C 333.484375 125.007812 320.128906 100.59375 301.734375 80.921875 L 300.320312 79.183594 L 299.421875 78.085938 L 298.480469 77.035156 L 296.59375 74.929688 C 294.140625 72.054688 291.4375 69.441406 288.808594 66.746094 C 287.460938 65.425781 286.050781 64.183594 284.671875 62.902344 L 282.609375 60.988281 C 281.886719 60.367188 281.167969 59.773438 280.445312 59.160156 C 279.511719 58.386719 278.488281 57.523438 277.75 56.949219 C 271.375 52.253906 264.148438 47.246094 255.902344 42.367188 C 259.207031 43.429688 262.492188 44.570312 265.519531 45.734375 C 266.519531 46.117188 267.53125 46.457031 268.523438 46.867188 C 269.503906 47.289062 270.488281 47.699219 271.460938 48.121094 C 273.414062 48.960938 275.386719 49.71875 277.265625 50.667969 C 279.15625 51.589844 281.054688 52.480469 282.949219 53.410156 C 284.78125 54.410156 286.628906 55.40625 288.480469 56.398438 C 288.949219 56.65625 289.421875 56.914062 289.894531 57.171875 C 290.355469 57.445312 290.8125 57.71875 291.253906 57.972656 C 292.125 58.488281 292.925781 58.945312 293.523438 59.285156 C 296.496094 60.816406 299.929688 63.175781 303.597656 65.730469 C 305.355469 67.085938 307.191406 68.5 309.015625 69.941406 C 309.949219 70.640625 310.796875 71.453125 311.679688 72.195312 C 312.550781 72.96875 313.425781 73.726562 314.289062 74.484375 C 314.847656 74.988281 315.414062 75.464844 315.96875 75.980469 L 317.570312 77.550781 C 318.65625 78.59375 319.738281 79.648438 320.8125 80.703125 C 321.078125 80.960938 321.351562 81.21875 321.601562 81.484375 L 322.375 82.308594 C 322.886719 82.859375 323.402344 83.40625 323.90625 83.957031 C 324.914062 85.046875 325.921875 86.144531 326.925781 87.21875 C 327.886719 88.355469 328.816406 89.480469 329.757812 90.59375 C 330.679688 91.71875 331.644531 92.792969 332.503906 93.929688 C 333.367188 95.070312 334.214844 96.195312 335.039062 97.308594 C 335.148438 97.441406 335.246094 97.582031 335.355469 97.714844 L 336.71875 100.152344 C 337.246094 101.09375 337.710938 102.074219 338.203125 103.03125 L 339.675781 105.925781 C 340.15625 106.890625 340.6875 107.832031 341.113281 108.835938 C 342.011719 110.808594 342.925781 112.773438 343.832031 114.757812 C 345.480469 118.769531 347.1875 122.777344 348.542969 126.898438 C 348.902344 127.929688 349.257812 128.949219 349.617188 129.964844 C 349.988281 130.972656 350.257812 132.011719 350.582031 133.019531 C 350.898438 134.042969 351.203125 135.066406 351.519531 136.082031 L 351.988281 137.617188 L 352.226562 138.382812 L 352.421875 139.164062 C 352.945312 141.246094 353.453125 143.351562 353.960938 145.519531 C 354.234375 146.59375 354.382812 147.707031 354.582031 148.832031 C 354.765625 149.957031 354.957031 151.101562 355.140625 152.257812 C 355.265625 153.039062 355.398438 153.839844 355.523438 154.648438 C 355.625 155.46875 355.730469 156.292969 355.832031 157.132812 C 356.046875 158.796875 356.28125 160.496094 356.523438 162.214844 C 356.664062 163.066406 356.730469 163.929688 356.804688 164.792969 C 356.894531 165.660156 356.972656 166.523438 357.054688 167.382812 C 357.144531 168.253906 357.226562 169.105469 357.304688 169.960938 C 357.386719 170.816406 357.484375 171.664062 357.503906 172.507812 C 357.710938 177.390625 358.375 180.972656 358.824219 180.058594 C 359.625 178.347656 360.429688 176.40625 361.398438 174.128906 C 361.457031 168.714844 361.007812 161.824219 360.441406 155.488281 C 359.558594 146.6875 357.609375 138.882812 355.058594 131.339844 C 355.496094 132.304688 355.929688 133.261719 356.371094 134.226562 C 358.003906 138.234375 359.675781 142.234375 361.007812 146.351562 C 361.371094 147.375 361.710938 148.390625 362.070312 149.398438 C 362.429688 150.402344 362.695312 151.4375 362.996094 152.449219 C 363.300781 153.472656 363.601562 154.480469 363.894531 155.496094 L 364.34375 157.027344 L 364.574219 157.792969 L 364.773438 158.566406 C 365.25 160.644531 365.75 162.742188 366.261719 164.894531 C 366.53125 165.96875 366.679688 167.074219 366.886719 168.1875 C 367.078125 169.296875 367.277344 170.433594 367.476562 171.589844 C 367.605469 172.371094 367.738281 173.15625 367.863281 173.96875 C 367.976562 174.777344 368.078125 175.601562 368.183594 176.425781 C 368.410156 178.085938 368.625 179.777344 368.859375 181.488281 C 368.984375 182.339844 369.042969 183.203125 369.109375 184.0625 C 369.191406 184.917969 369.265625 185.78125 369.335938 186.640625 C 369.402344 187.496094 369.476562 188.359375 369.558594 189.203125 C 369.625 190.058594 369.71875 190.90625 369.726562 191.746094 C 369.890625 196.589844 370.273438 200.15625 370.472656 199.242188 C 370.871094 197.550781 371.246094 195.625 371.695312 193.410156 C 371.621094 188.019531 371.105469 181.257812 370.382812 175.066406 Z M 121.960938 340.644531 L 120.015625 339.546875 C 119.359375 339.179688 118.714844 338.808594 118.085938 338.40625 L 114.292969 336.003906 L 112.386719 334.8125 C 111.769531 334.398438 111.164062 333.949219 110.554688 333.535156 C 99.15625 325.738281 88.742188 316.480469 79.628906 306.074219 L 81.1875 307.371094 L 82.933594 308.828125 C 83.226562 309.070312 83.507812 309.316406 83.816406 309.558594 L 84.722656 310.25 C 85.914062 311.179688 87.132812 312.113281 88.347656 313.042969 L 90.148438 314.449219 L 92.003906 315.789062 C 93.25 316.6875 94.488281 317.59375 95.714844 318.519531 L 96.636719 319.210938 L 97.601562 319.859375 C 98.234375 320.308594 98.867188 320.75 99.507812 321.195312 C 100.621094 321.972656 102.234375 322.984375 103.609375 323.808594 L 107.632812 326.023438 C 108.984375 326.746094 110.3125 327.527344 111.703125 328.167969 L 115.828125 330.171875 C 116.511719 330.511719 117.1875 330.847656 117.886719 331.179688 L 119.988281 332.09375 C 121.394531 332.710938 122.792969 333.339844 124.199219 333.957031 L 125.246094 334.429688 L 126.320312 334.855469 L 128.449219 335.722656 C 129.882812 336.304688 131.296875 336.910156 132.71875 337.519531 C 134.160156 338.066406 135.605469 338.625 137.039062 339.207031 C 137.59375 339.421875 138.335938 339.671875 139.140625 339.929688 C 139.542969 340.054688 139.964844 340.179688 140.375 340.3125 C 140.796875 340.421875 141.203125 340.539062 141.597656 340.644531 C 152.585938 343.832031 163.84375 345.84375 175.28125 346.792969 C 177.339844 346.933594 179.402344 347.082031 181.449219 347.226562 C 183.503906 347.300781 185.523438 347.324219 187.546875 347.375 L 188.386719 347.398438 L 187.90625 347.449219 C 186.832031 347.589844 185.765625 347.773438 184.691406 347.839844 C 182.53125 348.015625 180.398438 348.183594 178.238281 348.355469 C 177.605469 348.414062 176.972656 348.4375 176.347656 348.441406 L 174.441406 348.496094 L 170.625 348.582031 L 169.675781 348.613281 L 169.199219 348.621094 L 169.070312 348.628906 L 169.011719 348.628906 L 168.769531 348.621094 L 166.839844 348.566406 L 162.976562 348.449219 C 160.367188 348.441406 157.902344 348.140625 155.367188 347.972656 L 153.503906 347.824219 C 152.863281 347.773438 152.238281 347.730469 151.605469 347.632812 L 147.835938 347.140625 L 144.582031 346.710938 C 143.5 346.550781 142.421875 346.328125 141.355469 346.136719 C 135.695312 345.113281 130.132812 343.78125 124.632812 342.183594 C 123.765625 341.652344 122.859375 341.152344 121.960938 340.644531 Z M 317.445312 289.246094 L 315.652344 291.933594 C 315.039062 292.824219 314.480469 293.746094 313.816406 294.601562 C 312.519531 296.339844 311.238281 298.0625 309.957031 299.792969 C 309.589844 300.300781 309.183594 300.792969 308.773438 301.28125 L 307.550781 302.746094 L 305.097656 305.65625 L 304.488281 306.390625 L 304.1875 306.75 L 304.113281 306.839844 L 304.097656 306.863281 L 304.089844 306.863281 L 304.074219 306.882812 L 303.921875 307.0625 L 302.59375 308.480469 L 299.964844 311.308594 C 298.226562 313.253906 296.386719 314.925781 294.589844 316.703125 L 293.234375 318.019531 C 292.78125 318.460938 292.335938 318.902344 291.84375 319.316406 L 288.988281 321.828125 L 286.511719 324 C 285.671875 324.707031 284.796875 325.363281 283.9375 326.039062 C 274.894531 333.25 265.0625 339.40625 254.730469 344.582031 L 252.347656 345.800781 L 249.910156 346.902344 L 245.050781 349.113281 C 243.40625 349.785156 241.75 350.4375 240.09375 351.101562 C 239.269531 351.425781 238.464844 351.777344 237.625 352.097656 L 235.117188 352.964844 C 233.4375 353.539062 231.757812 354.164062 230.085938 354.710938 C 228.386719 355.21875 226.683594 355.726562 224.992188 356.242188 C 224.128906 356.484375 223.296875 356.773438 222.441406 356.976562 L 219.867188 357.625 L 217.289062 358.265625 C 216.433594 358.464844 215.582031 358.722656 214.710938 358.878906 C 212.621094 359.296875 210.566406 359.753906 208.460938 360.152344 C 203.539062 360.96875 198.5625 361.558594 193.585938 361.914062 C 192.195312 361.789062 190.816406 361.664062 189.460938 361.515625 C 189.078125 361.476562 188.554688 361.425781 187.972656 361.382812 C 187.386719 361.351562 186.707031 361.308594 186 361.21875 C 184.59375 361.066406 183.046875 360.910156 181.738281 360.765625 C 180.933594 360.675781 180.101562 360.578125 179.285156 360.484375 C 178.46875 360.410156 177.65625 360.234375 176.839844 360.125 C 175.199219 359.835938 173.554688 359.5625 171.898438 359.285156 L 170.671875 359.070312 L 169.441406 358.789062 L 166.996094 358.222656 L 164.558594 357.65625 C 163.742188 357.441406 162.910156 357.289062 162.128906 357.03125 C 158.542969 355.953125 155.03125 355.011719 151.671875 353.789062 C 150.832031 353.515625 149.992188 353.230469 149.148438 352.949219 C 148.308594 352.675781 147.460938 352.414062 146.65625 352.089844 C 145.015625 351.46875 143.375 350.875 141.746094 350.292969 C 141.207031 350.078125 140.382812 349.820312 139.597656 349.453125 C 138.808594 349.097656 138.019531 348.730469 137.476562 348.480469 C 137.394531 348.433594 137.3125 348.390625 137.226562 348.355469 C 145.6875 349.988281 154.308594 350.953125 162.863281 351.210938 C 164.117188 351.242188 165.367188 351.261719 166.628906 351.292969 C 167.878906 351.324219 169.136719 351.375 170.390625 351.324219 C 172.902344 351.261719 175.398438 351.234375 177.894531 351.152344 C 180.398438 350.976562 182.902344 350.800781 185.425781 350.617188 C 187.9375 350.359375 190.457031 349.988281 193.011719 349.652344 C 199.292969 348.621094 205.601562 347.390625 211.824219 345.695312 C 215.75 345.179688 219.542969 344.253906 223.253906 343.40625 C 223.785156 343.296875 224.292969 343.148438 224.835938 343 C 225.34375 342.851562 225.890625 342.699219 226.410156 342.542969 C 227.480469 342.242188 228.5625 341.941406 229.636719 341.636719 C 231.808594 341.085938 233.972656 340.335938 236.183594 339.699219 C 237.257812 339.382812 238.3125 339.074219 239.34375 338.773438 C 240.375 338.449219 241.367188 338.066406 242.363281 337.710938 C 243.339844 337.359375 244.296875 337 245.253906 336.652344 C 245.734375 336.46875 246.199219 336.292969 246.675781 336.121094 L 247.375 335.847656 L 248.066406 335.554688 C 249.886719 334.753906 251.667969 333.957031 253.449219 333.160156 L 254.785156 332.558594 L 256.085938 331.894531 C 256.957031 331.445312 257.824219 330.996094 258.6875 330.539062 C 259.902344 329.890625 261.160156 329.28125 262.382812 328.59375 C 263.605469 327.886719 264.835938 327.179688 266.078125 326.464844 C 266.707031 326.105469 267.324219 325.753906 267.949219 325.390625 L 268.890625 324.855469 L 269.820312 324.273438 C 271.058594 323.5 272.300781 322.71875 273.566406 321.929688 C 274.203125 321.539062 274.84375 321.140625 275.496094 320.75 C 276.117188 320.332031 276.742188 319.90625 277.382812 319.476562 C 278.648438 318.628906 279.929688 317.777344 281.234375 316.90625 C 281.558594 316.695312 281.875 316.480469 282.210938 316.265625 C 282.523438 316.039062 282.847656 315.804688 283.164062 315.574219 C 283.8125 315.117188 284.453125 314.652344 285.105469 314.191406 C 286.410156 313.246094 287.757812 312.347656 289.0625 311.371094 C 291.117188 309.785156 293.214844 308.269531 295.253906 306.691406 C 297.242188 305.050781 299.230469 303.421875 301.121094 301.738281 C 307.210938 296.058594 312.824219 290.351562 318.109375 284.265625 C 319.382812 282.714844 320.671875 281.152344 321.960938 279.597656 C 322.617188 278.832031 323.191406 277.992188 323.792969 277.183594 C 324.40625 276.363281 325.007812 275.539062 325.613281 274.722656 C 326.1875 273.925781 326.785156 273.132812 327.335938 272.320312 C 324.363281 278.148438 321.078125 283.804688 317.445312 289.246094 Z M 343.859375 204.589844 C 343.84375 204.996094 343.824219 205.398438 343.808594 205.804688 C 343.617188 213.117188 342.925781 220.4375 341.738281 227.675781 C 341.304688 229.070312 340.820312 230.453125 340.378906 231.851562 L 339.550781 234.335938 C 339.289062 235.152344 338.949219 235.964844 338.632812 236.78125 C 338.019531 238.402344 337.386719 240.027344 336.769531 241.648438 C 336.210938 242.980469 335.597656 244.292969 335.023438 245.601562 C 334.441406 246.898438 333.898438 248.21875 333.300781 249.484375 C 332.691406 250.742188 332.101562 251.988281 331.546875 253.21875 C 331.269531 253.835938 331.003906 254.441406 330.738281 255.039062 C 330.613281 255.347656 330.488281 255.648438 330.355469 255.941406 C 330.222656 256.238281 330.082031 256.53125 329.949219 256.828125 C 329.382812 258.050781 328.53125 259.675781 327.59375 261.414062 C 327.351562 261.851562 327.109375 262.292969 326.886719 262.734375 C 326.636719 263.175781 326.351562 263.601562 326.085938 264.035156 C 325.570312 264.898438 325.039062 265.761719 324.539062 266.578125 C 321.636719 271.496094 317.484375 276.933594 314.988281 280.554688 C 314.546875 281.203125 314.140625 281.882812 313.640625 282.507812 C 313.148438 283.140625 312.640625 283.78125 312.160156 284.421875 C 311.152344 285.695312 310.121094 287.007812 309.046875 288.289062 C 307.917969 289.527344 306.785156 290.777344 305.660156 292.042969 L 303.921875 293.914062 L 302.109375 295.71875 L 298.890625 298.886719 C 297.808594 299.941406 296.660156 300.917969 295.546875 301.929688 L 293.871094 303.429688 C 293.292969 303.929688 292.742188 304.445312 292.144531 304.917969 C 290.960938 305.859375 289.773438 306.8125 288.597656 307.761719 L 286.800781 309.183594 C 286.1875 309.640625 285.554688 310.074219 284.953125 310.515625 C 283.699219 311.398438 282.441406 312.28125 281.1875 313.171875 C 280.5625 313.621094 279.914062 314.042969 279.253906 314.449219 C 278.589844 314.851562 277.941406 315.257812 277.273438 315.671875 C 277.148438 315.742188 277.027344 315.816406 276.910156 315.890625 C 315.554688 288.914062 341.445312 244.949219 343.714844 194.792969 C 343.742188 195.207031 343.757812 195.605469 343.785156 196.015625 C 343.851562 197.644531 343.824219 199.285156 343.839844 200.921875 C 343.84375 201.738281 343.84375 202.5625 343.851562 203.382812 C 343.851562 203.773438 343.875 204.183594 343.859375 204.589844 Z M 259.570312 46.382812 C 261.992188 47.855469 264.246094 49.585938 266.566406 51.191406 C 267.140625 51.605469 267.722656 52.007812 268.289062 52.414062 C 268.847656 52.839844 269.414062 53.269531 269.96875 53.695312 C 271.085938 54.542969 272.191406 55.382812 273.316406 56.199219 C 273.921875 56.65625 274.546875 57.089844 275.121094 57.578125 C 275.6875 58.054688 276.242188 58.527344 276.765625 58.976562 C 277.050781 59.226562 277.332031 59.476562 277.589844 59.710938 C 277.476562 59.640625 277.359375 59.566406 277.257812 59.492188 C 276.527344 59 275.804688 58.511719 275.113281 58.054688 C 261.933594 49.128906 247.308594 42.191406 231.675781 37.605469 C 230.558594 37.242188 229.4375 36.890625 228.3125 36.535156 C 227.214844 36.160156 226.089844 35.894531 224.96875 35.59375 C 224.71875 35.527344 224.46875 35.46875 224.21875 35.402344 C 232.816406 36.433594 241.375 38.171875 249.554688 40.402344 C 252.972656 42.273438 256.300781 44.261719 259.570312 46.382812 Z M 259.570312 46.382812 " fill-opacity="1" fill-rule="nonzero"/></g></g><g clip-path="url(#decdf9877f)"><g clip-path="url(#8c4eb06096)"><path fill="#303030" d="M 7.621094 215.480469 C 7.367188 213.933594 7.117188 212.402344 6.867188 210.871094 C 6.664062 209.332031 6.523438 207.777344 6.339844 206.238281 C 6.21875 205.164062 6.09375 204.050781 5.96875 202.960938 C 5.84375 201.863281 5.808594 200.789062 5.699219 199.789062 C 5.550781 198.21875 5.402344 196.621094 5.253906 195.03125 C 5.167969 194.234375 5.152344 193.433594 5.117188 192.628906 C 5.085938 191.828125 5.0625 191.023438 5.027344 190.230469 C 4.953125 188.636719 4.878906 187.070312 4.804688 185.515625 C 4.804688 183.945312 4.800781 182.394531 4.769531 180.882812 C 4.628906 176.375 4.695312 175.417969 4.128906 177.066406 C 3.980469 177.53125 3.863281 178.21875 3.71875 178.902344 C 3.679688 180.125 3.664062 181.355469 3.621094 182.480469 C 3.578125 183.613281 3.503906 184.734375 3.464844 185.875 L 3.472656 189.265625 C 3.488281 190.390625 3.488281 191.523438 3.488281 192.667969 C 3.503906 193.242188 3.488281 193.808594 3.519531 194.375 C 3.554688 194.949219 3.589844 195.515625 3.628906 196.089844 C 3.953125 201.910156 4.644531 207.828125 5.832031 212.832031 C 6.21875 214.421875 6.617188 216.109375 7.023438 217.808594 C 7.132812 218.234375 7.214844 218.664062 7.339844 219.097656 L 7.699219 220.371094 C 7.945312 221.21875 8.195312 222.066406 8.429688 222.90625 C 8.546875 222.308594 8.546875 221.59375 8.394531 220.460938 C 8.230469 219.332031 7.980469 217.773438 7.621094 215.480469 Z M 7.621094 215.480469 " fill-opacity="1" fill-rule="nonzero"/></g></g><g clip-path="url(#0805b92d4f)"><g clip-path="url(#1993972986)"><path fill="#303030" d="M 101.804688 342.992188 C 100.835938 342.390625 99.496094 341.535156 97.535156 340.289062 C 96.21875 339.457031 94.898438 338.640625 93.589844 337.816406 C 92.300781 336.945312 91.039062 336.039062 89.757812 335.15625 C 88.867188 334.539062 87.964844 333.898438 87.050781 333.273438 C 86.144531 332.644531 85.304688 331.960938 84.480469 331.386719 C 83.214844 330.449219 81.910156 329.515625 80.621094 328.566406 C 79.964844 328.109375 79.347656 327.601562 78.730469 327.101562 C 78.101562 326.59375 77.484375 326.082031 76.859375 325.582031 C 75.628906 324.589844 74.398438 323.609375 73.183594 322.636719 C 72.007812 321.597656 70.828125 320.582031 69.679688 319.609375 C 66.203125 316.730469 65.519531 316.0625 66.386719 317.570312 C 66.660156 317.976562 67.078125 318.527344 67.492188 319.09375 C 68.390625 319.925781 69.304688 320.753906 70.113281 321.53125 C 70.9375 322.3125 71.734375 323.117188 72.574219 323.890625 L 75.128906 326.121094 C 75.976562 326.863281 76.828125 327.609375 77.691406 328.351562 C 78.125 328.71875 78.539062 329.101562 78.988281 329.464844 C 79.441406 329.808594 79.898438 330.164062 80.347656 330.511719 C 84.945312 334.113281 89.839844 337.5 94.382812 339.90625 C 95.820312 340.664062 97.359375 341.476562 98.90625 342.300781 C 99.304688 342.5 99.6875 342.722656 100.082031 342.917969 L 101.277344 343.480469 C 102.085938 343.855469 102.875 344.230469 103.667969 344.605469 C 103.300781 344.113281 102.761719 343.632812 101.804688 342.992188 Z M 101.804688 342.992188 " fill-opacity="1" fill-rule="nonzero"/></g></g><g fill="#ffffff" fill-opacity="1"><g transform="translate(117.150693, 316.147942)"><g><path d="M 70.15625 -259.703125 C 89.988281 -259.703125 104.617188 -253.820312 114.046875 -242.0625 C 123.484375 -230.3125 128.203125 -214.640625 128.203125 -195.046875 L 128.203125 -173.015625 L 101.015625 -173.015625 L 101.015625 -196.515625 C 101.015625 -208.273438 98.625 -217.398438 93.84375 -223.890625 C 89.070312 -230.378906 81.421875 -233.625 70.890625 -233.625 C 60.609375 -233.625 53.015625 -230.378906 48.109375 -223.890625 C 43.210938 -217.398438 40.765625 -208.273438 40.765625 -196.515625 L 40.765625 -60.609375 C 40.765625 -48.859375 43.210938 -39.738281 48.109375 -33.25 C 53.015625 -26.757812 60.609375 -23.515625 70.890625 -23.515625 C 81.421875 -23.515625 89.070312 -26.757812 93.84375 -33.25 C 98.625 -39.738281 101.015625 -48.859375 101.015625 -60.609375 L 101.015625 -112.03125 L 74.5625 -112.03125 L 74.5625 -137.75 L 128.203125 -137.75 L 128.203125 -62.078125 C 128.203125 -42.484375 123.484375 -26.804688 114.046875 -15.046875 C 104.617188 -3.296875 89.988281 2.578125 70.15625 2.578125 C 50.5625 2.578125 36.050781 -3.296875 26.625 -15.046875 C 17.195312 -26.804688 12.484375 -42.484375 12.484375 -62.078125 L 12.484375 -195.046875 C 12.484375 -204.847656 13.644531 -213.726562 15.96875 -221.6875 C 18.300781 -229.644531 21.851562 -236.4375 26.625 -242.0625 C 31.40625 -247.695312 37.40625 -252.046875 44.625 -255.109375 C 51.851562 -258.171875 60.363281 -259.703125 70.15625 -259.703125 Z M 70.15625 -259.703125 "/></g></g></g></svg>